<svg width="256" height="256" viewBox="0 0 256 256" xmlns="http://www.w3.org/2000/svg">
  <title>
    Widgetized Page Icon
  </title>
  <g fill="none" fill-rule="evenodd">
    <path fill="#3D454B" d="M0 0h256v256H0z"/>
    <g transform="translate(5 5)">
      <path fill="#F9F9F9" d="M0 0h246v246H0z"/>
      <ellipse fill="#CFD8DC" cx="49.117" cy="51.185" rx="9.84" ry="9.84"/>
      <path fill="#CFD8DC" d="M74.42 48.58h24.6v4.92h-24.6zM147.807 48.58h24.6v4.92h-24.6zM110.597 48.58h24.6v4.92h-24.6zM185.017 48.58h24.6v4.92h-24.6zM185.017 132.303h24.6v4.92h-24.6zM172.613 132.303h4.92v4.92h-4.92zM172.613 144.706h4.92v4.92h-4.92zM172.613 157.11h4.92v4.92h-4.92zM172.613 169.513h4.92v4.92h-4.92zM172.613 181.916h4.92v4.92h-4.92zM172.613 194.32h4.92v4.92h-4.92zM185.017 144.706h24.6v4.92h-24.6zM185.017 157.11h24.6v4.92h-24.6zM185.017 169.513h24.6v4.92h-24.6zM185.017 181.916h24.6v4.92h-24.6zM185.017 194.32h24.6v4.92h-24.6z"/>
      <rect fill="#CFD8DC" x="185.017" y="87.857" width="12.3" height="12.3" rx="6.15"/>
      <path fill="#3D454B" d="M35 94h112.695v112.695H35z"/>
      <path fill="#CE684C" d="M38.962 97.962h104.77v23.123H38.963z"/>
      <path fill="#72AC98" d="M38.962 179.61h50.34v23.123H38.96zM93.394 179.61h50.34v23.123h-50.34z"/>
      <path fill="#5C9299" d="M38.962 152.394h68.49v23.123h-68.49z"/>
      <path fill="#DEBC47" d="M38.962 125.178H71.16V148.3H38.96zM111.536 125.178h32.197V148.3h-32.197z"/>
      <path fill="#5C9299" d="M111.536 152.394h32.197v23.123h-32.197z"/>
      <path fill="#DEBC47" d="M75.25 125.178h32.198V148.3H75.25z"/>
    </g>
  </g>
</svg>
